<svg width="22" height="32" viewBox="0 0 22 32" fill="none" xmlns="http://www.w3.org/2000/svg">
<path d="M12.5926 2.80222C12.5889 1.12859 12.5522 0.94967 12.0967 0.487456C11.858 0.245166 11.7698 0.185525 11.4797 0.092333L12.5926 2.80222ZM12.5926 2.80222C12.5963 3.58871 12.5816 4.2522 12.5596 4.27456M12.5926 2.80222L12.5596 4.27456M0.445716 11.8731L0.445712 11.8731C0.437049 11.8884 0.427651 11.9152 0.419026 11.9554C0.410577 11.9947 0.403511 12.0437 0.39797 12.1013C0.386895 12.2166 0.382201 12.3632 0.383801 12.5297C0.387001 12.8625 0.415312 13.2714 0.466485 13.6609C0.663967 15.108 1.19432 16.6184 1.9362 17.8311L1.93624 17.8312C2.77714 19.2114 4.10497 20.5588 5.40937 21.3708L5.4096 21.371L5.75854 21.5909L5.78909 21.6101L5.78041 21.6452L5.15973 24.1538L5.15972 24.1538C4.8197 25.5248 4.64244 26.269 4.57725 26.7507C4.54477 26.9907 4.54046 27.1633 4.55715 27.3143C4.57383 27.4653 4.61172 27.597 4.66637 27.756L4.66651 27.7564C4.79986 28.1551 5.09964 28.5972 5.36963 28.8063L5.36967 28.8063L5.55699 28.9517L5.5827 28.9716L5.57487 29.0032L5.32513 30.0096C5.32513 30.0096 5.32512 30.0096 5.32512 30.0096C5.17029 30.6345 5.09504 30.9692 5.0897 31.1869C5.08708 31.2937 5.10149 31.3694 5.13036 31.436C5.15965 31.5035 5.20515 31.565 5.27065 31.6426C5.38686 31.7786 5.49729 31.8647 5.60862 31.9101C5.71888 31.955 5.83386 31.9616 5.96277 31.932C6.24156 31.8611 6.42623 31.7004 6.52282 31.4483L6.52317 31.4474C6.52824 31.435 6.5408 31.3932 6.56084 31.3204C6.58043 31.2493 6.6063 31.1518 6.63773 31.0308C6.70057 30.789 6.78545 30.4542 6.88644 30.0507C7.0884 29.2439 7.35465 28.163 7.63743 27.0038L7.63744 27.0038L8.66946 22.7881L8.68062 22.7425L8.72681 22.7507L9.27013 22.8476C10.3883 23.0405 11.6093 23.0405 12.7275 22.8477L0.445716 11.8731ZM0.445716 11.8731L0.446058 11.8725C0.501151 11.7719 0.537044 11.7137 0.582141 11.6663C0.626919 11.6192 0.683111 11.5802 0.783051 11.523M0.445716 11.8731L0.783051 11.523M0.783051 11.523C0.878724 11.4695 1.01807 11.4449 1.16091 11.4521C1.30373 11.4593 1.4416 11.4977 1.53445 11.5617C1.66687 11.653 1.74944 11.7433 1.80257 11.8657C1.8566 11.9901 1.88209 12.152 1.89122 12.3909C1.97247 14.6382 2.72208 16.5985 4.12891 18.266L4.12909 18.2662C4.39187 18.5742 4.76559 18.9421 5.12718 19.2604C5.48765 19.5778 5.84069 19.85 6.06167 19.9631L6.06165 19.9631L6.0635 19.964C6.0808 19.972 6.09736 19.9686 6.10791 19.9637C6.11714 19.9593 6.12316 19.9533 6.12615 19.95C6.13234 19.9432 6.13685 19.9353 6.13982 19.9297C6.14631 19.9174 6.15329 19.9004 6.16066 19.8806C6.17564 19.8401 6.19496 19.78 6.21821 19.7022C6.26481 19.5463 6.32833 19.3155 6.40641 19.02C6.56261 18.4288 6.77754 17.5767 7.03281 16.5423L7.03285 16.5421C7.26054 15.6029 7.47169 14.7457 7.62774 14.1215C7.70577 13.8094 7.77001 13.5556 7.81564 13.3789C7.83847 13.2906 7.85659 13.2217 7.86944 13.1745C7.87205 13.165 7.87443 13.1563 7.87657 13.1487C7.88486 13.1533 7.89435 13.1589 7.90499 13.1655C7.95021 13.1935 8.01013 13.2361 8.07346 13.2857C8.71927 13.7979 9.45444 14.122 10.2819 14.2538M0.783051 11.523L9.10317 21.0909L9.10319 21.0908L9.1067 21.0721C9.10965 21.0574 9.11398 21.0371 9.11958 21.0119C9.13077 20.9613 9.14724 20.8897 9.16837 20.7994C9.21065 20.6188 9.27174 20.3631 9.34704 20.0513C9.49764 19.4278 9.70517 18.5797 9.93289 17.659L9.93291 17.6589C10.1624 16.7365 10.3681 15.8961 10.5154 15.2854C10.5891 14.98 10.6482 14.7321 10.6883 14.5602C10.7084 14.4742 10.7238 14.4073 10.7339 14.3618C10.7358 14.3529 10.7376 14.3448 10.7391 14.3376M10.2819 14.2538C10.2818 14.2538 10.2818 14.2538 10.2818 14.2538L10.2899 14.2045L10.282 14.2538C10.282 14.2538 10.2819 14.2538 10.2819 14.2538ZM10.2819 14.2538C10.4173 14.2761 10.5417 14.2984 10.633 14.316C10.6772 14.3245 10.7134 14.3319 10.7391 14.3376M10.7391 14.3376C10.74 14.3378 10.7409 14.338 10.7418 14.3382C10.7549 14.3411 10.7646 14.3434 10.7709 14.3452L10.7763 14.3468C10.7766 14.3469 10.7758 14.3466 10.7743 14.3459C10.7736 14.3456 10.7721 14.3449 10.7703 14.3438C10.7688 14.3429 10.7651 14.3405 10.7611 14.3365C10.7511 14.3263 10.7486 14.315 10.7481 14.3128C10.7472 14.3089 10.747 14.3057 10.7469 14.3044C10.7468 14.3015 10.747 14.2994 10.747 14.299L10.747 14.299C10.7471 14.2979 10.7471 14.2976 10.747 14.2988L10.7448 14.3105C10.7434 14.3174 10.7416 14.3265 10.7391 14.3376ZM9.38028 21.2946C9.28578 21.2762 9.21724 21.2582 9.17276 21.2325C9.14921 21.2189 9.12933 21.2015 9.11643 21.1779C9.10358 21.1543 9.10029 21.1295 9.10144 21.1058C9.10145 21.1055 9.10146 21.1053 9.10147 21.1051L9.38028 21.2946ZM9.38028 21.2946C10.3124 21.4823 11.8512 21.4713 12.7178 21.2758L12.7185 21.2757C12.7793 21.2611 12.8291 21.2462 12.8612 21.2204C12.8793 21.2058 12.8924 21.1876 12.8993 21.1651C12.9057 21.1443 12.9057 21.123 12.9036 21.1032M9.38028 21.2946L12.9036 21.1032M12.9036 21.1032C12.9032 21.0994 12.9024 21.0943 12.9013 21.0885C12.9002 21.083 12.8989 21.077 12.8977 21.071C12.8945 21.0562 12.8899 21.0359 12.8841 21.0105C12.8725 20.9598 12.8556 20.888 12.834 20.7976C12.7908 20.6168 12.7288 20.3611 12.6526 20.0494C12.5001 19.4259 12.2907 18.5779 12.0611 17.6553C11.8334 16.7347 11.6286 15.8952 11.4817 15.2849C11.4083 14.9798 11.3493 14.732 11.3092 14.5601C11.2891 14.4742 11.2738 14.4073 11.2637 14.3618C11.2617 14.3529 11.26 14.3448 11.2584 14.3376C11.2842 14.3319 11.3203 14.3245 11.3645 14.316C11.4558 14.2984 11.5802 14.2761 11.7157 14.2538C11.7157 14.2538 11.7157 14.2538 11.7158 14.2538L11.7077 14.2045L12.9036 21.1032ZM16.7098 31.6608C16.7809 31.5793 16.8303 31.5156 16.8622 31.4466C16.8935 31.3789 16.9093 31.303 16.9076 31.1961C16.904 30.9776 16.828 30.6424 16.6731 30.0099L16.7098 31.6608ZM16.7098 31.6608C16.6178 31.7653 16.5602 31.8231 16.5047 31.86C16.4511 31.8957 16.397 31.9137 16.3078 31.9318C16.1838 31.9555 16.0322 31.9337 15.8921 31.878C15.7517 31.8222 15.6299 31.7351 15.5618 31.6357L15.5206 31.664M16.7098 31.6608L15.5206 31.664M15.5206 31.664L15.5621 31.6361M15.5206 31.664L15.5621 31.6361M15.5621 31.6361C15.5624 31.6366 15.5623 31.6365 15.5618 31.6356M15.5621 31.6361L15.5618 31.6356M15.5618 31.6356C15.5614 31.6346 15.5605 31.6329 15.5593 31.6301M15.5618 31.6356L15.5593 31.6301M15.5593 31.6301C15.557 31.6249 15.5542 31.6179 15.5509 31.6086M15.5593 31.6301L15.5509 31.6086M15.5509 31.6086C15.5441 31.5902 15.5356 31.5649 15.5254 31.5326M15.5509 31.6086L15.5254 31.5326M15.5254 31.5326C15.5051 31.4682 15.4786 31.378 15.4465 31.2639M15.5254 31.5326L15.4465 31.2639M15.4465 31.2639C15.3823 31.0357 15.2959 30.7136 15.192 30.3146M15.4465 31.2639L15.192 30.3146M15.192 30.3146C14.9841 29.5168 14.7059 28.4128 14.3937 27.1418L15.192 30.3146ZM12.5596 4.27456C12.5412 4.2932 12.398 4.27456 12.2511 4.22983L12.5596 4.27456ZM9.51464 1.07261L9.56154 1.08994C9.56156 1.08987 9.56159 1.0898 9.56162 1.08973C9.56164 1.08966 9.56166 1.0896 9.56168 1.08954L9.51464 1.07261ZM9.47937 4.23163C9.47725 4.23167 9.47524 4.23168 9.47334 4.23166C9.4658 4.23159 9.46155 4.23107 9.45983 4.23072C9.45591 4.22994 9.46442 4.23051 9.47318 4.2394C9.47771 4.244 9.48008 4.24833 9.48097 4.25006C9.48203 4.25212 9.48258 4.25362 9.48274 4.25409C9.48288 4.25449 9.48292 4.25466 9.4829 4.25456C9.48286 4.25442 9.4827 4.25383 9.48246 4.25265C9.48161 4.24863 9.48054 4.24181 9.47937 4.23163ZM12.5238 4.23173C12.5219 4.23174 12.5199 4.23173 12.5178 4.23169C12.5166 4.24188 12.5155 4.24869 12.5147 4.25272C12.5144 4.25407 12.5143 4.25465 12.5143 4.25465C12.5143 4.25465 12.5143 4.25448 12.5144 4.25416C12.5146 4.25368 12.5151 4.25218 12.5162 4.25012C12.5171 4.24839 12.5194 4.24407 12.524 4.23947C12.5327 4.23057 12.5413 4.23001 12.5373 4.23079C12.5356 4.23113 12.5314 4.23165 12.5238 4.23173ZM13.2711 22.7508L12.7278 22.8477L14.3937 27.1418L13.3284 22.7882L13.3173 22.7426L13.2711 22.7508ZM13.924 13.2859C13.9873 13.2363 14.0473 13.1937 14.0925 13.1656C14.1032 13.159 14.1127 13.1534 14.1209 13.1488C14.1231 13.1565 14.1255 13.1651 14.1281 13.1747C14.1409 13.2218 14.1591 13.2907 14.1819 13.3791C14.2275 13.5557 14.2918 13.8095 14.3698 14.1216C14.5259 14.7458 14.7371 15.603 14.9648 16.5423L14.9648 16.5425C15.2165 17.5621 15.4333 18.4141 15.5914 19.0091C15.6704 19.3064 15.7348 19.54 15.7816 19.6981C15.8049 19.7771 15.8241 19.838 15.8387 19.8789C15.8459 19.8991 15.8525 19.9159 15.8583 19.928C15.861 19.9335 15.8649 19.941 15.8701 19.9476C15.8725 19.9505 15.878 19.9571 15.8869 19.9621C15.8971 19.9679 15.9164 19.9737 15.9365 19.9631C16.1576 19.8498 16.5113 19.5769 16.8719 19.2593C17.234 18.9405 17.6077 18.5726 17.8686 18.2664L17.8688 18.2663C19.2608 16.6213 19.9956 14.706 20.0952 12.4925C20.1062 12.3033 20.1207 12.1567 20.1413 12.0443C20.1619 11.9312 20.1879 11.8571 20.2191 11.8096C20.5556 11.3136 21.2404 11.3334 21.5297 11.8438L21.53 11.8443C21.5498 11.8782 21.5676 11.9312 21.5817 12.0039C21.5957 12.0758 21.6055 12.1638 21.6112 12.2654C21.6224 12.4686 21.6167 12.7232 21.5955 13.0068C21.553 13.5739 21.4487 14.2532 21.297 14.8636L21.297 14.8637C20.9681 16.2062 20.3504 17.5011 19.4835 18.6853C18.8041 19.612 17.5527 20.7706 16.5885 21.371L16.5882 21.3712L16.2393 21.5911L16.2088 21.6104L16.2174 21.6454L16.8382 24.154L16.8382 24.154C17.1783 25.5251 17.3556 26.2693 17.4208 26.7509C17.4533 26.9909 17.4576 27.1635 17.4409 27.3146C17.4242 27.4655 17.3864 27.5973 17.3317 27.7563L17.3315 27.757C17.269 27.9472 17.1585 28.1602 17.0282 28.352C16.8977 28.5442 16.7498 28.7118 16.6144 28.8135L16.6144 28.8135L16.6132 28.8144L16.4406 28.9523L16.4156 28.9724L16.4233 29.0035L16.673 30.0097L13.924 13.2859ZM8.20666 7.05548L8.20682 7.05526C8.45627 6.7214 8.85553 6.36027 9.2289 6.12852L9.22898 6.12847C10.0355 5.62562 11.1584 5.49356 12.0399 5.80155L12.0402 5.80166C12.6647 6.01538 13.0143 6.23861 13.4533 6.68407C14.6162 7.86421 14.8154 9.6096 13.9568 11.0252L13.9567 11.0253C13.8278 11.2396 13.5891 11.5119 13.3303 11.756C13.0711 12.0005 12.7973 12.2116 12.6004 12.307C11.6564 12.7638 10.7559 12.8254 9.85157 12.495L9.85143 12.495C9.53958 12.3821 9.31245 12.2757 9.1028 12.1322C8.89292 11.9885 8.69846 11.8062 8.45347 11.539C8.1186 11.1733 7.88738 10.8243 7.7391 10.447C7.59085 10.0698 7.52447 9.66156 7.52262 9.1761C7.52627 8.36962 7.7547 7.65358 8.20666 7.05548ZM11.6243 9.66239C11.8453 9.33182 11.8152 8.95911 11.6348 8.6994C11.454 8.43918 11.1229 8.29382 10.7517 8.41667C10.0341 8.65146 10.0263 9.66214 10.7395 9.90911C10.899 9.96697 11.0776 9.96758 11.2365 9.9237L11.6243 9.66239Z" fill="#78767A" stroke="#78767A" stroke-width="0.1"/>
</svg>
