<svg width="32" height="32" viewBox="0 0 32 32" fill="none" xmlns="http://www.w3.org/2000/svg">
<path d="M21.824 10.1854L21.8241 10.1855L22.0148 10.3764C23.4321 11.7952 24.133 12.4968 24.5193 12.8338C24.7222 13.0107 24.8318 13.081 24.9085 13.105C24.9718 13.1248 25.0131 13.1139 25.0855 13.0948L21.824 10.1854ZM21.824 10.1854C20.6893 9.05371 19.9594 8.31833 19.5109 7.85248C19.2865 7.61947 19.1331 7.45445 19.0348 7.34124C18.9856 7.28456 18.9509 7.24164 18.9281 7.21011C18.9167 7.19433 18.9089 7.18215 18.9038 7.17307C18.8983 7.16313 18.8979 7.16002 18.8982 7.16161C18.8842 7.08127 18.878 7.02532 18.8903 6.96617C18.9025 6.90706 18.9345 6.83961 19.0075 6.74133C19.1548 6.54291 19.4549 6.23693 20.0425 5.64493C20.3517 5.33354 20.6539 5.03624 20.8909 4.80808C21.0095 4.69399 21.1116 4.59731 21.1902 4.52486C21.2694 4.45181 21.322 4.40575 21.3438 4.39011C21.4422 4.32325 21.6575 4.22217 21.8285 4.16208C22.4193 3.96075 23.1403 4.034 23.6954 4.35493L23.6956 4.35506M21.824 10.1854L23.6956 4.35506M23.6956 4.35506C23.7077 4.36195 23.7326 4.38048 23.7713 4.41265C23.8089 4.44393 23.857 4.48584 23.9141 4.53712C24.0284 4.63964 24.1779 4.77865 24.3513 4.94287C24.698 5.27125 25.1392 5.69963 25.5825 6.13676C26.0257 6.57388 26.4707 7.01957 26.8251 7.38253C27.1806 7.74669 27.4418 8.02451 27.5205 8.12812C27.6684 8.32443 27.7685 8.49909 27.8349 8.69025C27.9014 8.88155 27.9349 9.09188 27.9465 9.36062C27.9558 9.60225 27.9475 9.77792 27.9101 9.94954C27.8727 10.1214 27.8054 10.2918 27.6936 10.5224C27.678 10.5545 27.6308 10.6183 27.5539 10.7098C27.4784 10.7995 27.3782 10.9114 27.2609 11.0376C27.0265 11.29 26.7255 11.5985 26.4222 11.8993C26.1189 12.2001 25.8138 12.4927 25.5713 12.7135C25.45 12.824 25.3448 12.916 25.2635 12.982C25.2228 13.015 25.1887 13.041 25.1619 13.0594C25.1485 13.0686 25.1375 13.0756 25.1288 13.0804C25.1245 13.0828 25.121 13.0845 25.1184 13.0857C25.117 13.0863 25.116 13.0867 25.1153 13.0869C25.1147 13.0872 25.1144 13.0872 25.1144 13.0872L23.6956 4.35506ZM11.5983 14.1455L11.5983 14.1455L6.26696 19.5301L5.15928 23.4026L5.15928 23.4026C4.81704 24.5975 4.5393 25.5883 4.34715 26.2962C4.25107 26.6502 4.17645 26.9332 4.12587 27.1355C4.10057 27.2366 4.08137 27.3173 4.06853 27.3764C4.0621 27.4059 4.05735 27.4297 4.05423 27.4478C4.05092 27.467 4.05 27.4767 4.05 27.4798C4.05 27.562 4.05702 27.6109 4.07616 27.654C4.09564 27.6978 4.12981 27.7404 4.19476 27.8053C4.25971 27.8702 4.30226 27.9043 4.34656 27.9238C4.39025 27.943 4.44044 27.95 4.52513 27.95C4.52401 27.95 4.52552 27.95 4.53172 27.9491C4.53716 27.9482 4.54452 27.9469 4.55395 27.945C4.57275 27.9413 4.59832 27.9356 4.63042 27.928C4.69456 27.9129 4.78339 27.8907 4.89361 27.8623C5.11398 27.8055 5.41883 27.724 5.78045 27.6258C6.50363 27.4294 7.45322 27.166 8.40669 26.8981C9.36016 26.6301 10.3174 26.3576 11.0558 26.1431C11.425 26.0358 11.7394 25.943 11.9712 25.8726C12.0872 25.8373 12.1822 25.8077 12.2531 25.7847C12.3222 25.7623 12.3654 25.747 12.3834 25.7391L12.3903 25.7337C12.3973 25.728 12.407 25.7196 12.4197 25.7084C12.4449 25.6859 12.4804 25.6533 12.5256 25.611C12.6158 25.5265 12.7439 25.4043 12.9045 25.2496C13.2255 24.9402 13.676 24.5016 14.2126 23.9763C15.286 22.9257 16.7039 21.5289 18.121 20.1275C19.5381 18.7261 20.9543 17.3202 22.0241 16.2514C22.5591 15.7171 23.0073 15.2671 23.3257 14.9441C23.485 14.7826 23.6116 14.653 23.7004 14.5605C23.7448 14.5143 23.7795 14.4775 23.8041 14.4508C23.8163 14.4374 23.8258 14.4268 23.8326 14.4189C23.8379 14.4127 23.8404 14.4095 23.8413 14.4083C23.8417 14.4078 23.8418 14.4077 23.8417 14.4079L23.8421 14.4072C23.9611 14.2161 23.9463 14.0041 23.7976 13.8029C23.762 13.7563 23.6183 13.6022 23.412 13.3889C23.2065 13.1765 22.9419 12.9085 22.6679 12.637C22.1314 12.1079 21.8543 11.8394 21.6681 11.7132C21.5766 11.6512 21.5116 11.6269 21.452 11.6212C21.392 11.6154 21.3321 11.6278 21.247 11.6506C21.2464 11.651 21.2455 11.6516 21.2443 11.6524C21.2399 11.6551 21.2338 11.6595 21.2254 11.6659C21.2089 11.6787 21.1861 11.6976 21.1566 11.7232C21.0979 11.7744 21.0146 11.8506 20.9052 11.9536C20.6863 12.1593 20.3643 12.4705 19.9271 12.8989C19.0529 13.7557 17.7191 15.0806 15.832 16.9667C13.2132 19.5865 11.8914 20.9099 11.2213 21.6042C10.8858 21.9518 10.7154 22.14 10.6274 22.2537C10.5834 22.3103 10.5618 22.3462 10.5503 22.3723C10.5395 22.397 10.5368 22.4146 10.5341 22.4385L10.534 22.4388C10.5136 22.6116 10.5288 22.7131 10.6056 22.8065C10.6875 22.9059 10.8427 23.0012 11.1256 23.1426L11.6178 23.3862L11.6456 23.4V23.431V24.8416V24.8792L11.6094 24.8896L9.06347 25.6206L9.03515 25.6288L9.01432 25.608L6.39337 22.9884L6.37262 22.9677L6.3806 22.9394L6.74632 21.6461L6.74635 21.646L7.11675 20.3479L7.1271 20.3116H7.16483H8.54798H8.57888L8.5927 20.3392L8.85051 20.8546C8.85053 20.8546 8.85055 20.8547 8.85057 20.8547C9.01051 21.1721 9.12976 21.3489 9.25237 21.432C9.36666 21.5095 9.49141 21.5097 9.68387 21.4411L9.6882 21.4378C9.69431 21.4328 9.703 21.4253 9.71443 21.4152C9.7372 21.3949 9.76929 21.3653 9.81026 21.3269C9.89213 21.25 10.0085 21.1385 10.1544 20.9972C10.4464 20.7146 10.8563 20.3132 11.3454 19.832C12.3234 18.8694 13.6172 17.5874 14.9145 16.2967C16.2117 15.006 17.5123 13.7067 18.5038 12.7096C18.9996 12.211 19.418 11.7881 19.72 11.4796C19.8711 11.3253 19.9929 11.1997 20.0807 11.1077C20.17 11.0142 20.2212 10.9582 20.2341 10.9408C20.2866 10.8701 20.317 10.8177 20.3351 10.7619C20.3533 10.7059 20.3602 10.6428 20.3602 10.5489V10.3353L19.2403 9.21596L11.5983 14.1455ZM11.5983 14.1455C11.966 13.774 12.3112 13.4251 12.6354 13.0976M11.5983 14.1455L12.6354 13.0976M12.6354 13.0976C15.1345 10.5721 16.381 9.3125 17.0168 8.68482M12.6354 13.0976L17.0168 8.68482M17.0168 8.68482C17.3769 8.32935 17.5388 8.17885 17.621 8.11561M17.0168 8.68482L17.621 8.11561M17.621 8.11561C17.6624 8.08372 17.6773 8.07916 17.6824 8.07818M17.621 8.11561L17.6824 8.07818M17.6824 8.07818C17.6849 8.07772 17.6871 8.07762 17.6946 8.07798M17.6824 8.07818L17.6946 8.07798M17.6946 8.07798L17.6961 8.07806M17.6946 8.07798L17.6961 8.07806M17.6961 8.07806C17.7036 8.07843 17.7151 8.079 17.7292 8.07744M17.6961 8.07806L17.7292 8.07744M17.7292 8.07744L17.7237 8.02774M17.7292 8.07744L17.7237 8.02774M17.7237 8.02774L17.729 8.07746M17.7237 8.02774L17.729 8.07746M17.729 8.07746C17.818 8.06796 17.8772 8.06271 17.9377 8.07499M17.729 8.07746L17.9377 8.07499M17.9377 8.07499C17.9971 8.08703 18.0621 8.11709 18.1569 8.18739M17.9377 8.07499L18.1569 8.18739M18.1569 8.18739C18.3489 8.32987 18.6454 8.62376 19.2402 9.21589L18.1569 8.18739Z" fill="#78767A" stroke="#78767A" stroke-width="0.1"/>
</svg>
