<svg width="28" height="12" viewBox="0 0 28 12" fill="none" xmlns="http://www.w3.org/2000/svg">
<path d="M13.3078 0.488098L13.3079 0.488113L13.3067 0.488505C12.8769 0.629963 1.13017 4.7925 0.787687 4.91596C0.644193 4.97082 0.503755 5.05997 0.388783 5.16443C0.273287 5.26937 0.186513 5.38697 0.146527 5.49693L0.146529 5.49693L0.146353 5.4974C0.132049 5.53555 0.117625 5.60322 0.106842 5.68476C0.0961891 5.76533 0.0895508 5.85583 0.0895508 5.93792C0.0895508 6.28315 0.219157 6.54981 0.475445 6.72464C0.475846 6.72486 0.476642 6.72529 0.47795 6.72595L0.487371 6.73041C0.495477 6.7341 0.506478 6.73884 0.52048 6.74467C0.54844 6.7563 0.587233 6.77177 0.636458 6.79091C0.734844 6.82918 0.873915 6.88176 1.04924 6.94704C1.39984 7.07759 1.89473 7.25868 2.49761 7.47714C3.70333 7.91403 5.34056 8.50022 7.11825 9.13004C10.3415 10.2699 11.9577 10.8409 12.8228 11.127C13.2556 11.2701 13.4985 11.3413 13.6598 11.3768C13.819 11.4118 13.8981 11.4121 14.0054 11.4121C14.1113 11.4121 14.1894 11.4118 14.3477 11.3768C14.5082 11.3413 14.7505 11.2701 15.1826 11.127C16.0463 10.8409 17.6612 10.2699 20.8817 9.13004L20.8817 9.13002C22.6594 8.50293 24.2952 7.91811 25.4996 7.48123C26.1017 7.26278 26.5959 7.08136 26.946 6.95015C27.121 6.88453 27.2598 6.83154 27.358 6.79279C27.4071 6.7734 27.4458 6.75769 27.4736 6.74581C27.4875 6.73986 27.4984 6.73501 27.5064 6.73123C27.5134 6.72789 27.5166 6.72612 27.5175 6.72565C27.5177 6.72555 27.5177 6.72551 27.5177 6.72553C27.6533 6.63164 27.7505 6.52217 27.8144 6.38933C27.8785 6.25602 27.9104 6.09619 27.9104 5.89975C27.9104 5.71518 27.8993 5.60039 27.8612 5.50116C27.8233 5.40238 27.7568 5.3142 27.6352 5.18723L27.6351 5.18709C27.6175 5.16862 27.6057 5.15419 27.5955 5.14178C27.5714 5.1124 27.5566 5.09437 27.4976 5.06103C27.4092 5.01102 27.2328 4.93602 26.829 4.78503C26.1148 4.51796 24.7003 4.01708 21.832 3.00142C21.4666 2.87204 21.0776 2.73432 20.6635 2.58766L20.6802 2.54053L20.6635 2.58765C17.6311 1.51323 16.1036 0.972248 15.2733 0.697754C14.8579 0.560445 14.6188 0.490417 14.4539 0.453597C14.2906 0.417159 14.2 0.413227 14.0801 0.409186L14.0796 0.409164C13.706 0.392921 13.528 0.409461 13.3078 0.488098ZM0.0395508 5.93792C0.0395508 6.29784 0.175883 6.58141 0.448547 6.76682L0.770291 4.86908C0.47036 4.9836 0.186789 5.2399 0.0995369 5.47985C0.0668172 5.5671 0.0395508 5.76887 0.0395508 5.93792Z" fill="#78767A" stroke="#78767A" stroke-width="0.1"/>
</svg>
